<?xml version="1.0" standalone="no"?>
<!DOCTYPE svg PUBLIC "-//W3C//DTD SVG 20010904//EN"
 "http://www.w3.org/TR/2001/REC-SVG-20010904/DTD/svg10.dtd">
<svg version="1.0" xmlns="http://www.w3.org/2000/svg"
 width="current" height="current" viewBox="0 0 100.000000 100.000000"
 preserveAspectRatio="xMidYMid meet">

<g transform="translate(0.000000,100.000000) scale(0.100000,-0.100000)"
fill="#000000" stroke="none">
<path d="M483 932 c-6 -4 -21 -47 -32 -96 -24 -102 -53 -171 -84 -204 -26 -28
-91 -62 -164 -86 -102 -34 -96 -65 20 -106 139 -49 180 -99 221 -269 14 -58
30 -109 35 -114 5 -5 18 -6 29 -3 16 5 24 24 37 84 45 201 87 252 252 306 102
34 96 65 -20 106 -136 48 -181 100 -217 255 -32 135 -41 150 -77 127z"/>
</g>
</svg>
