<?xml version="1.0" standalone="no"?>
<!DOCTYPE svg PUBLIC "-//W3C//DTD SVG 20010904//EN"
 "http://www.w3.org/TR/2001/REC-SVG-20010904/DTD/svg10.dtd">
<svg version="1.0" xmlns="http://www.w3.org/2000/svg"
 width="632.000000pt" height="160.000000pt" viewBox="0 0 632.000000 160.000000"
 preserveAspectRatio="xMidYMid meet">

<g transform="translate(0.000000,160.000000) scale(0.100000,-0.100000)"
fill="#000000" stroke="none">
<path d="M421 1394 c-174 -47 -282 -222 -280 -455 0 -52 6 -112 13 -134 10
-33 10 -46 -3 -75 -22 -51 -22 -256 1 -331 34 -109 103 -172 223 -203 81 -22
273 -21 345 0 54 16 124 57 149 88 12 14 18 10 57 -33 50 -56 93 -71 201 -71
75 0 139 14 164 36 14 13 21 12 55 -8 30 -17 57 -23 128 -26 103 -5 162 8 203
42 l28 23 25 -24 c42 -40 84 -44 384 -41 241 3 286 5 307 19 23 16 27 16 54 0
23 -12 57 -16 145 -16 102 0 119 3 154 23 34 20 40 21 55 8 57 -50 290 -47
337 5 23 25 148 28 175 3 32 -28 92 -43 179 -43 87 0 147 15 179 43 13 12 39
16 103 16 72 0 88 -3 103 -20 25 -28 77 -40 171 -40 83 0 136 12 165 37 14 12
21 11 54 -8 27 -16 59 -24 116 -27 102 -6 160 4 205 34 l36 25 41 -28 40 -28
307 0 c272 0 309 2 332 17 25 16 28 16 60 0 69 -35 264 -26 309 14 15 13 21
12 55 -8 46 -27 192 -37 264 -18 126 34 169 179 115 394 -15 58 -15 69 -1 124
21 80 21 261 0 355 -22 95 -55 158 -117 225 -97 102 -180 126 -418 120 -139
-3 -158 -5 -192 -26 l-39 -22 -36 22 c-36 22 -46 23 -308 26 -292 4 -332 -1
-383 -44 -28 -24 -32 -24 -47 -10 -40 41 -77 51 -184 51 -92 0 -110 -3 -144
-23 l-38 -23 -47 23 c-65 32 -225 33 -288 2 -34 -17 -45 -19 -53 -9 -6 7 -30
18 -55 24 -59 15 -566 15 -620 0 -24 -7 -54 -26 -75 -49 l-35 -38 -27 23 c-54
47 -133 68 -253 69 -134 1 -202 -17 -274 -74 -28 -22 -51 -35 -51 -28 -1 18
-39 62 -75 84 -26 17 -55 19 -301 22 -292 4 -332 -1 -384 -44 l-30 -26 -30 26
c-43 36 -102 49 -196 44 -60 -3 -91 -10 -119 -26 l-37 -23 -46 22 c-56 28
-170 36 -242 19 -34 -8 -67 -25 -90 -46 l-36 -33 -35 24 c-81 58 -319 84 -448
49z m344 -108 c54 -23 103 -72 115 -116 5 -19 10 -68 10 -109 0 -107 -6 -111
-141 -111 -122 0 -135 6 -145 70 -10 60 -47 66 -59 10 -14 -63 7 -82 139 -124
109 -34 160 -67 185 -119 45 -93 13 -240 -71 -332 -64 -70 -108 -85 -248 -85
-134 0 -201 18 -251 69 -43 43 -59 91 -59 184 0 98 12 107 138 107 112 0 138
-11 148 -65 9 -47 32 -66 50 -40 8 10 14 34 14 52 0 42 -20 55 -139 92 -143
45 -188 85 -206 183 -11 56 20 178 58 235 36 53 98 101 148 114 57 14 268 4
314 -15z m444 13 c52 -18 61 -49 61 -214 l0 -146 42 3 41 3 1 152 1 153 28 27
c26 26 32 28 118 28 87 0 92 -1 115 -28 l24 -28 0 -412 c-1 -434 0 -431 -47
-455 -31 -17 -158 -15 -193 3 -38 19 -43 38 -46 175 -1 63 -2 130 -3 148 -1
30 -3 32 -40 32 l-40 0 -3 -160 c-4 -202 -4 -203 -138 -208 -88 -4 -90 -4
-120 26 l-30 30 0 407 c0 271 4 413 11 426 23 43 143 64 218 38z m1165 -10
c24 -19 26 -26 26 -98 0 -123 3 -121 -201 -121 l-169 0 0 -68 0 -67 138 -3
c125 -2 139 -4 155 -23 27 -33 23 -114 -8 -144 -23 -24 -29 -25 -155 -25
l-130 0 0 -65 0 -65 165 0 c205 0 205 0 205 -120 0 -126 15 -120 -309 -120
-260 0 -269 1 -296 22 -53 42 -55 56 -55 450 0 358 1 364 23 403 12 22 34 45
47 52 18 9 96 13 281 13 244 0 258 -1 283 -21z m573 0 c75 -28 120 -88 148
-197 22 -86 49 -636 32 -670 -18 -39 -53 -52 -140 -52 -74 0 -80 2 -108 29
-27 28 -29 34 -29 110 l0 81 -39 0 -38 0 -5 -82 c-5 -76 -7 -83 -37 -110 -28
-25 -38 -28 -106 -28 -41 0 -85 5 -98 11 -50 23 -51 35 -38 341 7 156 19 313
26 351 27 133 88 204 196 227 52 11 196 4 236 -11z m878 -4 c22 -21 25 -33 25
-98 0 -102 -8 -111 -107 -117 l-78 -5 -3 -322 -2 -321 -31 -26 c-27 -23 -40
-26 -105 -26 -85 0 -124 15 -142 55 -8 18 -12 117 -12 335 l0 310 -72 0 c-99
0 -108 9 -108 116 0 77 2 84 26 103 26 20 39 21 306 21 l279 0 24 -25z m334
14 c49 -17 56 -39 61 -209 l5 -155 38 -1 37 -1 1 51 c4 247 6 267 33 295 25
24 33 26 117 26 87 0 92 -1 115 -28 l24 -28 0 -412 c-1 -434 0 -431 -47 -455
-28 -15 -154 -16 -186 -1 -42 19 -49 47 -51 205 l-3 149 -41 3 -41 3 -3 -160
c-4 -203 -4 -204 -138 -209 -88 -4 -90 -4 -120 26 l-30 30 0 407 c0 271 4 413
11 426 23 43 143 64 218 38z m1165 -10 c24 -19 26 -26 26 -98 0 -123 3 -121
-201 -121 l-169 0 0 -70 0 -70 139 0 c133 0 141 -1 155 -22 9 -13 16 -43 16
-71 0 -38 -5 -53 -25 -72 -23 -24 -29 -25 -155 -25 l-130 0 0 -65 0 -65 165 0
c205 0 205 0 205 -120 0 -126 15 -120 -309 -120 l-269 0 -31 26 c-17 14 -35
42 -41 62 -7 24 -10 162 -8 402 l3 365 24 33 c13 19 33 37 45 42 11 5 136 9
277 9 245 1 258 0 283 -20z m545 5 c99 -29 181 -130 207 -255 27 -126 7 -258
-48 -316 l-20 -22 22 -31 c31 -43 60 -141 60 -198 -1 -78 -33 -102 -139 -102
-38 0 -81 5 -95 11 -32 15 -52 59 -60 131 -3 31 -10 68 -16 82 -8 21 -13 24
-32 17 -21 -8 -23 -16 -28 -99 -7 -125 -18 -136 -140 -140 -88 -4 -90 -4 -120
27 l-31 30 3 398 3 398 24 33 c13 19 33 37 45 42 38 16 307 12 365 -6z"/>
<path d="M2796 1054 c-4 -10 -10 -75 -13 -146 l-6 -128 26 0 c14 0 28 4 31 8
3 5 1 66 -3 136 -8 123 -20 168 -35 130z"/>
<path d="M5720 946 c0 -117 1 -124 19 -119 11 3 29 14 41 25 20 19 22 28 18
101 -4 68 -8 83 -28 99 -46 37 -50 28 -50 -106z"/>
</g>
</svg>
