<?xml version="1.0" standalone="no"?>
<!DOCTYPE svg PUBLIC "-//W3C//DTD SVG 20010904//EN"
 "http://www.w3.org/TR/2001/REC-SVG-20010904/DTD/svg10.dtd">
<svg version="1.0" xmlns="http://www.w3.org/2000/svg"
 width="current" height="current" viewBox="0 0 150.000000 150.000000"
 preserveAspectRatio="xMidYMid meet">

<g transform="translate(0.000000,150.000000) scale(0.100000,-0.100000)"
fill="#000000" stroke="none">
<path d="M594 1421 c-156 -38 -266 -146 -320 -315 -32 -98 -43 -250 -24 -333
10 -47 9 -65 -6 -125 -12 -53 -15 -93 -11 -160 20 -307 168 -438 496 -438 276
0 424 106 495 354 35 120 42 204 23 293 -14 62 -14 78 -1 125 29 109 10 307
-38 408 -30 60 -98 127 -161 155 -119 54 -317 70 -453 36z m324 -96 c81 -19
114 -37 162 -86 59 -61 75 -119 75 -274 0 -107 -3 -136 -17 -157 -16 -25 -17
-30 -1 -70 11 -29 16 -75 16 -143 0 -226 -109 -398 -278 -436 -77 -17 -297 -7
-359 17 -72 28 -137 96 -160 170 -29 91 -33 235 -8 307 18 53 18 63 6 104 -19
61 -18 205 1 278 23 88 49 139 95 189 51 56 96 84 158 101 65 18 234 18 310 0z"/>
<path d="M632 1251 c-118 -30 -205 -162 -206 -311 -1 -121 45 -171 205 -221
119 -37 139 -50 139 -92 0 -18 -6 -42 -14 -52 -18 -26 -41 -7 -50 40 -10 54
-36 65 -148 65 -126 0 -138 -9 -138 -107 0 -121 31 -182 114 -225 34 -18 63
-23 166 -26 74 -2 142 0 166 7 149 40 252 272 182 411 -27 54 -65 77 -197 121
-113 38 -136 57 -127 107 3 19 10 40 15 45 15 15 38 -9 45 -48 11 -59 25 -65
145 -65 137 0 141 3 141 119 0 92 -13 133 -56 173 -51 47 -98 61 -229 64 -66
2 -135 -1 -153 -5z"/>
</g>
</svg>
