<?xml version="1.0" standalone="no"?>
<!DOCTYPE svg PUBLIC "-//W3C//DTD SVG 20010904//EN"
 "http://www.w3.org/TR/2001/REC-SVG-20010904/DTD/svg10.dtd">
<svg version="1.0" xmlns="http://www.w3.org/2000/svg"
 width="current" height="current" viewBox="0 0 632.000000 160.000000"
 preserveAspectRatio="xMidYMid meet">

<g transform="translate(0.000000,160.000000) scale(0.100000,-0.100000)"
fill="#000000" stroke="none">
<path d="M415 1492 c-38 -10 -88 -27 -110 -37 -57 -27 -155 -129 -192 -200
-62 -120 -91 -325 -62 -440 9 -36 8 -58 -6 -116 -34 -136 -2 -337 69 -444 76
-115 195 -165 407 -173 117 -4 146 -1 214 17 43 12 91 31 106 42 l29 20 32
-25 c69 -52 232 -71 349 -41 54 14 65 14 122 -1 74 -19 220 -15 284 8 39 14
47 14 85 -1 37 -14 88 -16 338 -15 162 0 322 2 355 3 33 2 103 0 155 -4 73 -5
109 -3 158 9 56 15 67 15 121 1 105 -27 275 -12 335 31 27 19 81 18 111 -2 88
-57 322 -57 410 0 30 20 114 21 141 2 60 -43 230 -58 335 -31 54 14 65 14 121
-1 75 -19 221 -15 286 8 38 14 46 14 85 -1 59 -22 578 -29 659 -8 44 11 61 11
103 0 67 -17 174 -16 246 2 53 14 65 14 118 0 74 -19 189 -19 260 -1 112 30
175 100 206 228 20 79 17 155 -10 259 -15 57 -15 68 -1 125 24 93 21 265 -5
378 -26 114 -68 193 -141 272 -108 115 -223 154 -459 154 -94 0 -161 -5 -200
-15 -53 -14 -66 -14 -125 0 -95 22 -524 21 -609 -1 -76 -20 -96 -20 -170 -1
-74 20 -152 21 -228 2 -33 -7 -61 -16 -63 -18 -3 -2 -35 4 -72 14 -81 23 -164
24 -243 4 -53 -14 -65 -14 -118 0 -46 12 -118 15 -322 15 -274 -1 -345 -9
-408 -46 -25 -15 -34 -16 -57 -5 -48 21 -187 51 -242 51 -67 0 -193 -26 -254
-52 l-46 -20 -29 22 c-55 40 -130 49 -393 49 -193 1 -258 -3 -305 -15 -76 -20
-96 -20 -170 -1 -74 20 -152 21 -228 2 -33 -7 -61 -16 -63 -18 -3 -2 -35 4
-72 14 -36 11 -93 19 -125 19 -65 0 -170 -23 -204 -46 -20 -13 -32 -11 -110
12 -119 35 -295 42 -398 16z m374 -110 c35 -11 74 -31 87 -43 l24 -23 34 33
c18 17 55 39 81 47 87 26 224 13 274 -25 24 -18 25 -18 51 1 76 55 271 48 336
-13 l23 -22 31 26 c52 44 91 49 384 45 260 -3 272 -4 307 -25 19 -13 44 -38
54 -57 l19 -34 42 34 c123 101 378 110 514 19 l50 -34 16 24 c9 14 32 35 53
47 35 22 45 23 316 26 282 4 371 -4 394 -32 9 -11 19 -9 54 8 63 31 223 30
288 -2 l47 -23 38 23 c33 20 53 23 134 23 111 0 138 -6 179 -41 l31 -26 30 26
c52 43 92 48 384 44 262 -3 272 -4 308 -26 l36 -22 39 22 c34 21 53 23 192 26
241 6 324 -19 420 -124 64 -70 94 -127 115 -221 21 -94 21 -275 0 -356 -14
-56 -14 -66 1 -126 53 -211 10 -357 -116 -391 -71 -19 -217 -9 -263 18 -34 20
-40 21 -55 8 -43 -39 -240 -48 -309 -14 -31 16 -35 16 -77 -3 -43 -19 -64 -20
-334 -17 l-288 3 -40 28 -41 28 -36 -25 c-45 -30 -103 -40 -205 -34 -57 3 -89
11 -116 27 -33 19 -40 20 -54 7 -57 -50 -290 -47 -337 5 -14 16 -31 19 -101
19 -74 0 -88 -3 -124 -27 -71 -47 -253 -46 -324 3 -48 32 -162 35 -189 5 -47
-52 -280 -55 -337 -5 -15 13 -21 12 -55 -8 -35 -20 -52 -23 -154 -23 -93 0
-121 3 -142 17 -25 16 -28 16 -60 0 -28 -15 -72 -17 -310 -20 -294 -3 -336 2
-378 41 l-25 23 -43 -30 c-43 -30 -46 -31 -160 -31 -104 0 -121 3 -156 23 -34
20 -40 21 -55 8 -25 -22 -89 -36 -164 -36 -107 0 -151 15 -200 70 l-43 47 -34
-29 c-19 -17 -60 -42 -90 -57 -52 -25 -62 -26 -215 -26 -142 1 -166 3 -217 23
-67 27 -133 87 -159 146 -41 93 -50 280 -17 371 11 33 12 47 2 80 -18 59 -17
208 2 284 41 166 131 266 274 307 69 20 279 12 359 -14z"/>
<path d="M436 1296 c-148 -55 -237 -270 -170 -411 22 -47 79 -82 185 -116 119
-37 139 -50 139 -92 0 -18 -6 -42 -14 -52 -18 -26 -41 -7 -50 40 -10 54 -36
65 -148 65 -126 0 -138 -9 -138 -107 0 -121 31 -182 114 -225 34 -18 63 -23
166 -26 166 -6 199 4 270 76 44 45 60 71 78 125 29 88 29 160 0 217 -27 54
-65 77 -197 121 -113 38 -136 57 -127 107 3 19 9 39 14 44 17 17 40 -4 46 -42
10 -64 23 -70 145 -70 137 0 141 3 141 119 0 92 -13 133 -56 173 -52 48 -98
61 -234 65 -91 2 -135 -1 -164 -11z"/>
<path d="M1034 1300 c-54 -22 -54 -22 -54 -463 l0 -409 30 -30 c30 -30 32 -30
120 -26 134 5 134 6 138 208 l3 160 40 0 39 0 0 -132 c0 -159 10 -202 50 -223
35 -18 161 -20 193 -3 47 24 46 21 47 459 l0 416 -26 24 c-23 22 -34 24 -115
24 -83 0 -90 -2 -116 -28 -28 -27 -28 -28 -31 -182 l-4 -155 -39 0 -39 0 0
150 c0 167 -7 190 -62 209 -37 13 -144 13 -174 1z"/>
<path d="M1814 1300 c-12 -5 -32 -23 -45 -42 l-24 -33 -3 -365 c-2 -240 1
-378 8 -402 6 -20 24 -48 41 -62 l31 -26 269 0 c324 0 309 -6 309 120 0 120 0
120 -205 120 l-165 0 0 65 0 65 130 0 c126 0 132 1 155 25 20 19 25 34 25 72
0 28 -7 58 -16 71 -13 19 -24 22 -87 22 -40 0 -102 3 -139 7 l-68 6 0 63 0 64
168 0 c206 0 202 -2 202 118 0 75 -2 82 -26 101 -25 20 -38 21 -283 20 -141 0
-266 -4 -277 -9z"/>
<path d="M2709 1301 c-65 -14 -123 -55 -152 -110 -42 -77 -55 -161 -68 -468
-14 -307 -12 -319 38 -342 31 -14 155 -14 186 0 37 17 50 48 55 132 l5 78 36
-3 36 -3 5 -83 c5 -76 7 -86 33 -108 25 -21 38 -24 110 -24 91 0 121 13 138
57 13 35 -17 594 -36 668 -28 108 -73 166 -150 195 -38 14 -188 22 -236 11z
m121 -378 c5 -70 6 -131 3 -135 -2 -5 -16 -8 -30 -8 l-26 0 6 129 c4 71 10
137 13 146 15 38 27 -10 34 -132z"/>
<path d="M3225 1298 c-32 -18 -35 -28 -35 -114 0 -105 9 -114 108 -114 l72 0
0 -310 c0 -395 -2 -390 155 -390 67 0 78 3 105 28 l31 27 2 320 2 320 78 5
c99 6 107 15 107 117 0 65 -3 77 -25 98 l-24 25 -278 0 c-188 -1 -284 -4 -298
-12z"/>
<path d="M3983 1295 c-17 -7 -36 -22 -42 -34 -7 -13 -11 -155 -11 -426 l0
-407 30 -30 c30 -30 32 -30 120 -26 134 5 134 6 138 208 l3 160 40 0 39 0 0
-132 c0 -159 10 -202 50 -223 35 -18 161 -20 193 -3 47 24 46 21 47 455 l0
412 -24 28 c-23 27 -28 28 -115 28 -86 0 -92 -2 -118 -28 -28 -27 -28 -28 -31
-182 l-3 -155 -40 0 -39 0 0 145 c0 165 -9 196 -61 214 -44 15 -137 13 -176
-4z"/>
<path d="M4764 1300 c-12 -5 -32 -23 -45 -42 l-24 -33 -3 -365 c-2 -240 1
-378 8 -402 6 -20 24 -48 41 -62 l31 -26 269 0 c324 0 309 -6 309 120 0 120 0
120 -205 120 l-165 0 0 65 0 65 130 0 c126 0 132 1 155 25 20 19 25 34 25 72
0 28 -7 58 -16 71 -14 21 -22 22 -155 22 l-139 0 0 70 0 70 169 0 c204 0 201
-2 201 121 0 72 -2 79 -26 98 -25 20 -38 21 -283 20 -141 0 -266 -4 -277 -9z"/>
<path d="M5504 1300 c-12 -5 -32 -23 -45 -42 l-24 -33 -3 -398 -3 -398 31 -30
c30 -31 32 -31 120 -27 122 4 133 15 140 140 5 83 7 91 28 99 27 10 38 -10 47
-93 15 -126 38 -148 155 -148 107 0 139 23 140 102 0 57 -29 155 -60 198 l-22
31 20 22 c55 58 75 190 48 316 -26 125 -108 226 -207 255 -58 18 -327 22 -365
6z m266 -248 c19 -15 24 -31 28 -96 4 -70 3 -79 -18 -101 -13 -14 -32 -25 -42
-25 -16 0 -18 10 -18 120 0 130 5 139 50 102z"/>
</g>
</svg>
